<?xml version="1.0" encoding="UTF-8"?>
<svg xmlns="http://www.w3.org/2000/svg" viewBox="0 0 440 70">
  <g fill="currentColor">
    <path d="M400.2,48.5c-7.8,0-14.2-6.1-14.2-13.5s6.4-13.5,14.2-13.5h32.4v4.9h-32.4c-5,0-9,3.9-9,8.6s4,8.6,9,8.6h27.2v-6.1h-24.3v-4.9h29.5v16h-32.4Z"/>
    <path d="M197,48.5v-16h36.7c1.8,0,3.2-1.4,3.2-3.1s-1.4-3.1-3.2-3.1h-36.7v-4.9h36.7c4.6,0,8.4,3.6,8.4,8s-3.8,8-8.4,8h-31.5v11.1h-5.2Z"/>
    <rect x="261" y="21.5" width="45.2" height="4.9"/>
    <polygon points="261 48.5 261 32.5 306.2 32.5 306.2 37.5 266.2 37.5 266.2 43.6 306.2 43.6 306.2 48.5 261 48.5"/>
    <polygon points="362.7 48.5 328.7 27 328.7 48.5 323.5 48.5 323.5 21.5 329.4 21.5 363.4 43 363.4 21.5 368.6 21.5 368.6 48.5 362.7 48.5"/>
    <polygon points="169.6 48.5 154.8 37.9 140.1 48.5 131.6 48.5 150.5 34.8 132.2 21.5 140.8 21.5 154.8 31.7 169 21.5 177.6 21.5 159.1 34.8 178.2 48.5 169.6 48.5"/>
    <path d="M109,59.7c-6.1-7.2-12.2-14.4-18.3-21.6h0c-.7-.8-1.1-1-2.1-1.1h0c-7-.5-13.5-.7-20.5-1.2h0c-.2,0-.4-.2-.4-.4h0c0-.2,0-.5,0-.7h0c0-.2.2-.4.4-.5h0c7-.5,13.5-.7,20.4-1.2h0c1.1,0,1.4-.3,2.1-1.1h0c6-7.1,18.3-21.6,18.3-21.6.8-1,.4-2-.9-2h0c-2.1,0-4.7,0-6.8,0h0c-1.1,0-1.5.1-2.5.6h0c-11,5.8-27.6,14.7-38.5,20.6h0c-.3.2-.6.4-.8.7-.2.3-.2.7-.2,1h0c0,2.2,0,5.4,0,7.6h0c0,.4,0,.7.2,1,.2.3.5.5.8.7h0c10.5,5.7,27.7,14.9,38.6,20.6h0c1,.5,1.4.6,2.5.6h0c2,0,4.6,0,6.8,0h0c1.3,0,1.7-1.1.9-2"/>
    <path d="M7.8,59.7c6.1-7.2,12.2-14.4,18.3-21.6h0c.7-.8,1.1-1,2.1-1.1h0c7-.5,13.5-.7,20.5-1.2h0c.2,0,.4-.2.4-.4h0c0-.2,0-.5,0-.7h0c0-.2-.2-.4-.4-.5h0c-7-.5-13.5-.7-20.4-1.2h0c-1.1,0-1.4-.3-2.1-1.1h0C20.1,24.8,7.8,10.3,7.8,10.3c-.8-1-.4-2,.9-2h0c2.1,0,4.7,0,6.8,0h0c1.1,0,1.5.1,2.5.6h0c11,5.8,27.6,14.7,38.5,20.6h0c.3.2.6.4.8.7.2.3.2.7.2,1h0c0,2.2,0,5.4,0,7.6h0c0,.4,0,.7-.2,1-.2.3-.5.5-.8.7h0c-10.5,5.7-27.7,14.9-38.6,20.6h0c-1,.5-1.4.6-2.5.6h0c-2,0-4.6,0-6.8,0h0c-1.3,0-1.7-1.1-.9-2"/>
  </g>
</svg>
